<?xml version="1.0" encoding="UTF-8"?> <svg xmlns="http://www.w3.org/2000/svg" xmlns:xlink="http://www.w3.org/1999/xlink" id="Icon" viewBox="0 0 132.79 34.01"> <defs> <style>.cls-1{fill:#777878;}.cls-2{fill:#fff;}.cls-3{fill:url(#linear-gradient);}.cls-4{fill:none;}</style> <linearGradient id="linear-gradient" x1="17.49" y1="30.19" x2="17.49" y2="7.8" gradientTransform="matrix(1, 0, 0, -1, 0, 36)" gradientUnits="userSpaceOnUse"> <stop offset="0" stop-color="#f452ff"></stop> <stop offset="1" stop-color="#832bc1"></stop> </linearGradient> </defs> <title>Artboard 1</title> <g id="_Group_" data-name="&lt;Group&gt;"> <path id="_Path_" data-name="&lt;Path&gt;" class="cls-1" d="M132.78,9.08v-1a15.48,15.48,0,0,0-.2-2.15A6.95,6.95,0,0,0,128.9.88a7.14,7.14,0,0,0-2.05-.67A14.08,14.08,0,0,0,124.7,0l-1,0H9.07l-1,0A14.32,14.32,0,0,0,5.93.21a7,7,0,0,0-2,.67A6.83,6.83,0,0,0,2.15,2.15,6.77,6.77,0,0,0,.88,3.89,7,7,0,0,0,.21,5.94,14.08,14.08,0,0,0,0,8.09c0,.33,0,.66,0,1V24.94c0,.33,0,.66,0,1a12.92,12.92,0,0,0,.19,2.15,7,7,0,0,0,.67,2.05,6.55,6.55,0,0,0,1.27,1.73,6.38,6.38,0,0,0,1.74,1.27,7,7,0,0,0,2,.68A14.32,14.32,0,0,0,8.09,34H124.7a14,14,0,0,0,2.15-.19,7.17,7.17,0,0,0,2.05-.68,6.44,6.44,0,0,0,1.74-1.27,6.78,6.78,0,0,0,1.27-1.73,7,7,0,0,0,.67-2.05,15.48,15.48,0,0,0,.2-2.15v-1c0-.39,0-.78,0-1.18V10.25C132.79,9.86,132.79,9.47,132.78,9.08Z"></path> <path id="_Path_2" data-name="&lt;Path&gt;" class="cls-2" d="M132.12,23.76v1.18c0,.33,0,.65,0,1a14.09,14.09,0,0,1-.19,2.06,6.22,6.22,0,0,1-3.32,4.57,6.85,6.85,0,0,1-1.87.62,15.39,15.39,0,0,1-2,.18H8.1a15.53,15.53,0,0,1-2-.18,6.78,6.78,0,0,1-1.86-.62,6.28,6.28,0,0,1-2.72-2.71A6.52,6.52,0,0,1,.86,28a13.34,13.34,0,0,1-.18-2.05c0-.23,0-.46,0-.69V8.79c0-.23,0-.45,0-.69a15,15,0,0,1,.18-2,6.27,6.27,0,0,1,.62-1.86A5.91,5.91,0,0,1,2.62,2.62,6.11,6.11,0,0,1,4.19,1.47,6.77,6.77,0,0,1,6.05.86,14.73,14.73,0,0,1,8.1.68H124.68a14.48,14.48,0,0,1,2,.18,6.73,6.73,0,0,1,1.87.61,6.11,6.11,0,0,1,1.57,1.15,6.61,6.61,0,0,1,1.15,1.57,6.4,6.4,0,0,1,.6,1.87,13.83,13.83,0,0,1,.19,2v1c0,.39,0,.77,0,1.16V23.76Z"></path> <g id="_Group_2" data-name="&lt;Group&gt;"> <g id="_Group_3" data-name="&lt;Group&gt;"> <path id="_Path_3" data-name="&lt;Path&gt;" class="cls-3" d="M28.24,25.22a4.71,4.71,0,0,1-1.43,1.88,4.63,4.63,0,0,1-1.57.82,9.93,9.93,0,0,1-2.71.28H12.45a9.85,9.85,0,0,1-2.7-.28,4.59,4.59,0,0,1-1.58-.82,4.71,4.71,0,0,1-1.43-1.88,8.75,8.75,0,0,1-.45-3.17h0V12h0A8.73,8.73,0,0,1,6.74,8.8,4.66,4.66,0,0,1,8.17,6.91,4.76,4.76,0,0,1,9.75,6.1a9.44,9.44,0,0,1,2.7-.29H22.53a9.39,9.39,0,0,1,2.7.29,4.76,4.76,0,0,1,1.58.81A4.66,4.66,0,0,1,28.24,8.8,8.73,8.73,0,0,1,28.69,12V22.05A8.75,8.75,0,0,1,28.24,25.22Z"></path> <path id="_Path_4" data-name="&lt;Path&gt;" class="cls-4" d="M28.24,25.22a4.71,4.71,0,0,1-1.43,1.88,4.63,4.63,0,0,1-1.57.82,9.93,9.93,0,0,1-2.71.28H12.45a9.85,9.85,0,0,1-2.7-.28,4.59,4.59,0,0,1-1.58-.82,4.71,4.71,0,0,1-1.43-1.88,8.75,8.75,0,0,1-.45-3.17h0V12h0A8.73,8.73,0,0,1,6.74,8.8,4.66,4.66,0,0,1,8.17,6.91,4.76,4.76,0,0,1,9.75,6.1a9.44,9.44,0,0,1,2.7-.29H22.53a9.39,9.39,0,0,1,2.7.29,4.76,4.76,0,0,1,1.58.81A4.66,4.66,0,0,1,28.24,8.8,8.73,8.73,0,0,1,28.69,12V22.05A8.75,8.75,0,0,1,28.24,25.22Z"></path> <g id="_Group_4" data-name="&lt;Group&gt;"> <path class="cls-2" d="M19.11,18.68a2.24,2.24,0,0,0-1.62-.58,2.24,2.24,0,0,0-1.62.58,1,1,0,0,0-.3.65,8.22,8.22,0,0,0,0,1.69c.06.69.17,1.6.31,2.54a10,10,0,0,0,.26,1.27,1.27,1.27,0,0,0,1.31.78,1.27,1.27,0,0,0,1.31-.78,10,10,0,0,0,.26-1.27c.15-.94.26-1.85.32-2.54a8.14,8.14,0,0,0,0-1.69A1,1,0,0,0,19.11,18.68Zm-3.45-3.16a1.84,1.84,0,1,0,1.83-1.83A1.83,1.83,0,0,0,15.66,15.52Zm1.81-7.23A7.88,7.88,0,0,0,14.89,23.6a.11.11,0,0,0,.14-.12l-.12-.8a.27.27,0,0,0-.15-.22,6.87,6.87,0,1,1,5.47,0,.31.31,0,0,0-.16.22c0,.26-.07.53-.11.8a.11.11,0,0,0,.14.12A7.88,7.88,0,0,0,17.47,8.29Zm-.14,3.62a4.27,4.27,0,0,1,3.09,7.37.36.36,0,0,0-.11.26,6.83,6.83,0,0,1,0,.9.11.11,0,0,0,.17.09,5.28,5.28,0,1,0-5.94,0,.1.1,0,0,0,.16-.09,6.81,6.81,0,0,1,0-.9.35.35,0,0,0-.1-.26,4.2,4.2,0,0,1-1.35-3.22A4.27,4.27,0,0,1,17.33,11.91Z"></path> </g> </g> </g> </g> <path id="_Path_5" data-name="&lt;Path&gt;" class="cls-2" d="M132.12,23.76v1.18c0,.33,0,.65,0,1a14.09,14.09,0,0,1-.19,2.06,6.22,6.22,0,0,1-3.32,4.57,6.85,6.85,0,0,1-1.87.62,15.39,15.39,0,0,1-2,.18H8.1a15.53,15.53,0,0,1-2-.18,6.78,6.78,0,0,1-1.86-.62,6.28,6.28,0,0,1-2.72-2.71A6.52,6.52,0,0,1,.86,28a13.34,13.34,0,0,1-.18-2.05c0-.23,0-.46,0-.69V8.79c0-.23,0-.45,0-.69a15,15,0,0,1,.18-2,6.27,6.27,0,0,1,.62-1.86A5.91,5.91,0,0,1,2.62,2.62,6.11,6.11,0,0,1,4.19,1.47,6.77,6.77,0,0,1,6.05.86,14.73,14.73,0,0,1,8.1.68H124.68a14.48,14.48,0,0,1,2,.18,6.73,6.73,0,0,1,1.87.61,6.11,6.11,0,0,1,1.57,1.15,6.61,6.61,0,0,1,1.15,1.57,6.4,6.4,0,0,1,.6,1.87,13.83,13.83,0,0,1,.19,2v1c0,.39,0,.77,0,1.16V23.76Z"></path> <g id="_Group_5" data-name="&lt;Group&gt;"> <path class="cls-1" d="M37.18,13H33.26V6.58h.81v5.73h3.11Z"></path> <path class="cls-1" d="M38.16,7.11a.49.49,0,1,1,.48.49A.49.49,0,0,1,38.16,7.11Zm.09,1.27H39V13h-.78Z"></path> <path class="cls-1" d="M42,8.34a1.54,1.54,0,0,1,1.7,1.34H43c0-.44-.42-.71-1-.71s-.94.27-.94.67.24.52.77.65l.72.18c.94.23,1.28.56,1.28,1.24S43,13.07,42,13.07a1.62,1.62,0,0,1-1.81-1.35h.77c.08.47.46.72,1.09.72s1-.26,1-.67-.2-.49-.72-.63l-.82-.21c-.81-.21-1.22-.62-1.22-1.25C40.27,8.89,41,8.34,42,8.34Z"></path> <path class="cls-1" d="M45.91,7.26V8.38h.9V9h-.9v2.76c0,.42.18.61.58.61l.32,0V13a2.13,2.13,0,0,1-.49,0c-.86,0-1.19-.35-1.19-1.24V9h-.69V8.38h.69V7.26Z"></path> <path class="cls-1" d="M51.63,11.7a1.84,1.84,0,0,1-1.94,1.37,2.09,2.09,0,0,1-2.14-2.35,2.12,2.12,0,0,1,2.1-2.39,2,2,0,0,1,2,2.29v.29H48.35V11a1.32,1.32,0,0,0,1.36,1.44,1.12,1.12,0,0,0,1.15-.7Zm-3.28-1.39h2.53A1.22,1.22,0,0,0,49.64,9,1.28,1.28,0,0,0,48.35,10.31Z"></path> <path class="cls-1" d="M52.74,8.38h.73v.76h0a1.66,1.66,0,0,1,3.08.91v3H55.8V10.18c0-.75-.35-1.16-1.08-1.16a1.18,1.18,0,0,0-1.21,1.31V13h-.77Z"></path> <path class="cls-1" d="M59.75,10.7a2.16,2.16,0,1,1,4.31,0,2.16,2.16,0,1,1-4.31,0Zm3.51,0c0-1-.5-1.68-1.35-1.68s-1.37.63-1.37,1.68.51,1.69,1.37,1.69S63.26,11.76,63.26,10.7Z"></path> <path class="cls-1" d="M65.11,8.38h.73v.76h0a1.66,1.66,0,0,1,3.08.91v3h-.77V10.18c0-.75-.35-1.16-1.08-1.16a1.17,1.17,0,0,0-1.2,1.31V13h-.78Z"></path> <path d="M38.61,24.4H35L34.08,27H32.53L36,17.41H37.6L41.05,27H39.48Zm-3.28-1.2h2.9L36.8,19h0Z"></path> <path d="M48.7,23.49c0,2.17-1.16,3.57-2.92,3.57a2.36,2.36,0,0,1-2.19-1.23h0v3.46H42.12V20h1.39v1.16h0a2.48,2.48,0,0,1,2.23-1.23C47.53,19.93,48.7,21.33,48.7,23.49Zm-1.48,0c0-1.41-.73-2.34-1.84-2.34s-1.83,1-1.83,2.34.73,2.35,1.83,2.35S47.22,24.92,47.22,23.49Z"></path> <path d="M56.44,23.49c0,2.17-1.16,3.57-2.92,3.57a2.36,2.36,0,0,1-2.19-1.23h0v3.46H49.86V20h1.39v1.16h0a2.48,2.48,0,0,1,2.23-1.23C55.27,19.93,56.44,21.33,56.44,23.49Zm-1.48,0c0-1.41-.73-2.34-1.84-2.34s-1.83,1-1.83,2.34.73,2.35,1.83,2.35S55,24.92,55,23.49Z"></path> <path d="M57.65,17.41h1.43V27H57.65Z"></path> <path d="M66.84,24.93a2.8,2.8,0,0,1-3,2.14c-2,0-3.29-1.36-3.29-3.54s1.27-3.61,3.23-3.61,3.15,1.32,3.15,3.44v.49H62v.09a1.82,1.82,0,0,0,1.88,2,1.58,1.58,0,0,0,1.61-1ZM62,22.85h3.49a1.68,1.68,0,0,0-1.72-1.77A1.76,1.76,0,0,0,62,22.85Z"></path> <path d="M75.09,17.41a3,3,0,0,1,3.16,3.14,3,3,0,0,1-3.2,3.16H73V27H71.5V17.4h3.59ZM73,22.46h1.7a1.79,1.79,0,0,0,2-1.9,1.79,1.79,0,0,0-2-1.9H73v3.8Z"></path> <path d="M78.92,23.49c0-2.19,1.29-3.57,3.31-3.57s3.31,1.38,3.31,3.57-1.28,3.58-3.31,3.58S78.92,25.7,78.92,23.49Zm5.16,0c0-1.5-.69-2.39-1.85-2.39s-1.85.89-1.85,2.39.69,2.4,1.85,2.4S84.08,25,84.08,23.49Z"></path> <path d="M86.54,23.49c0-2.15,1.18-3.56,2.92-3.56a2.36,2.36,0,0,1,2.19,1.23h0V17.41h1.44V27H91.72V25.8h0a2.39,2.39,0,0,1-2.22,1.26C87.72,27.06,86.54,25.65,86.54,23.49Zm1.46,0c0,1.44.73,2.35,1.85,2.35s1.83-.93,1.83-2.35-.73-2.34-1.83-2.34S88,22.07,88,23.49Z"></path> <path d="M99.33,22.4a1.53,1.53,0,0,0-1.64-1.28c-1.11,0-1.84.92-1.84,2.37s.74,2.38,1.85,2.38a1.5,1.5,0,0,0,1.63-1.25h1.38a2.78,2.78,0,0,1-3,2.45c-2,0-3.3-1.36-3.3-3.58s1.31-3.58,3.28-3.58a2.81,2.81,0,0,1,3,2.49Z"></path> <path d="M101.62,25c0-1.23.94-1.94,2.68-2l1.85-.1V22.3c0-.79-.52-1.21-1.43-1.21a1.31,1.31,0,0,0-1.41,1H102c0-1.25,1.2-2.15,2.79-2.15s2.82.89,2.82,2.28V27h-1.37V25.84h0a2.47,2.47,0,0,1-2.2,1.24A2.13,2.13,0,0,1,101.62,25Zm4.53-.62v-.54l-1.67.11c-.93,0-1.42.41-1.42,1s.51,1,1.31,1A1.65,1.65,0,0,0,106.15,24.37Z"></path> <path d="M111.77,19.92c1.55,0,2.66.86,2.69,2.09h-1.35c-.06-.61-.58-1-1.38-1s-1.29.36-1.29.9.34.7,1.07.88l1.17.27c1.41.34,1.94.85,1.94,1.88,0,1.26-1.19,2.12-2.9,2.12S109,26.23,108.86,25h1.42c.1.67.64,1,1.51,1s1.39-.35,1.39-.91-.26-.66-1-.85l-1.25-.3c-1.26-.31-1.9-1-1.9-1.92C109,20.76,110.15,19.92,111.77,19.92Z"></path> <path d="M117.79,18.35V20h1.33v1.14h-1.33V25c0,.59.27.87.85.87l.47,0V27a4,4,0,0,1-.79.06c-1.42,0-2-.53-2-1.88v-4h-1V20h1V18.35Z"></path> <path d="M123,19.92c1.55,0,2.66.86,2.69,2.09h-1.34c-.06-.61-.59-1-1.38-1s-1.3.36-1.3.9.35.7,1.07.88l1.17.27c1.41.34,1.94.85,1.94,1.88,0,1.26-1.19,2.12-2.9,2.12s-2.75-.84-2.86-2.12h1.42c.1.67.64,1,1.51,1s1.39-.35,1.39-.91-.26-.66-1-.85l-1.25-.3c-1.26-.31-1.9-1-1.9-1.92C120.23,20.76,121.34,19.92,123,19.92Z"></path> </g> <g id="_Group_6" data-name="&lt;Group&gt;"> <g id="_Group_7" data-name="&lt;Group&gt;"> <path id="_Path_6" data-name="&lt;Path&gt;" class="cls-3" d="M28.24,25.22a4.71,4.71,0,0,1-1.43,1.88,4.63,4.63,0,0,1-1.57.82,9.93,9.93,0,0,1-2.71.28H12.45a9.85,9.85,0,0,1-2.7-.28,4.59,4.59,0,0,1-1.58-.82,4.71,4.71,0,0,1-1.43-1.88,8.75,8.75,0,0,1-.45-3.17h0V12h0A8.73,8.73,0,0,1,6.74,8.8,4.66,4.66,0,0,1,8.17,6.91,4.76,4.76,0,0,1,9.75,6.1a9.44,9.44,0,0,1,2.7-.29H22.53a9.39,9.39,0,0,1,2.7.29,4.76,4.76,0,0,1,1.58.81A4.66,4.66,0,0,1,28.24,8.8,8.73,8.73,0,0,1,28.69,12V22.05A8.75,8.75,0,0,1,28.24,25.22Z"></path> <path id="_Path_7" data-name="&lt;Path&gt;" class="cls-4" d="M28.24,25.22a4.71,4.71,0,0,1-1.43,1.88,4.63,4.63,0,0,1-1.57.82,9.93,9.93,0,0,1-2.71.28H12.45a9.85,9.85,0,0,1-2.7-.28,4.59,4.59,0,0,1-1.58-.82,4.71,4.71,0,0,1-1.43-1.88,8.75,8.75,0,0,1-.45-3.17h0V12h0A8.73,8.73,0,0,1,6.74,8.8,4.66,4.66,0,0,1,8.17,6.91,4.76,4.76,0,0,1,9.75,6.1a9.44,9.44,0,0,1,2.7-.29H22.53a9.39,9.39,0,0,1,2.7.29,4.76,4.76,0,0,1,1.58.81A4.66,4.66,0,0,1,28.24,8.8,8.73,8.73,0,0,1,28.69,12V22.05A8.75,8.75,0,0,1,28.24,25.22Z"></path> <g id="_Group_8" data-name="&lt;Group&gt;"> <path class="cls-2" d="M19.11,18.68a2.24,2.24,0,0,0-1.62-.58,2.24,2.24,0,0,0-1.62.58,1,1,0,0,0-.3.65,8.22,8.22,0,0,0,0,1.69c.06.69.17,1.6.31,2.54a10,10,0,0,0,.26,1.27,1.27,1.27,0,0,0,1.31.78,1.27,1.27,0,0,0,1.31-.78,10,10,0,0,0,.26-1.27c.15-.94.26-1.85.32-2.54a8.14,8.14,0,0,0,0-1.69A1,1,0,0,0,19.11,18.68Zm-3.45-3.16a1.84,1.84,0,1,0,1.83-1.83A1.83,1.83,0,0,0,15.66,15.52Zm1.81-7.23A7.88,7.88,0,0,0,14.89,23.6a.11.11,0,0,0,.14-.12l-.12-.8a.27.27,0,0,0-.15-.22,6.87,6.87,0,1,1,5.47,0,.31.31,0,0,0-.16.22c0,.26-.07.53-.11.8a.11.11,0,0,0,.14.12A7.88,7.88,0,0,0,17.47,8.29Zm-.14,3.62a4.27,4.27,0,0,1,3.09,7.37.36.36,0,0,0-.11.26,6.83,6.83,0,0,1,0,.9.11.11,0,0,0,.17.09,5.28,5.28,0,1,0-5.94,0,.1.1,0,0,0,.16-.09,6.81,6.81,0,0,1,0-.9.35.35,0,0,0-.1-.26,4.2,4.2,0,0,1-1.35-3.22A4.27,4.27,0,0,1,17.33,11.91Z"></path> </g> </g> </g> </svg> 